<svg width="80" height="80" viewBox="0 0 80 80" fill="none" xmlns="http://www.w3.org/2000/svg">
<path d="M31.885 7.29406V10.7344H23.0878V0.0782814H31.885V3.84859H26.8581V7.29406H31.885ZM40.9282 3.84859H44.4426V0.0782814H35.6445C35.6445 0.0782814 35.6445 1.97078 35.6445 3.84859C36.8215 5.02563 37.4353 5.58906 39.1376 7.29141C38.1425 7.29141 35.6445 7.29469 35.6445 7.29469V10.7344H44.4426V7.29406L40.9282 3.84859ZM53.3978 3.84859H56.9118V0.0782814H48.114C48.114 0.0782814 48.114 1.97078 48.114 3.84859C49.2907 5.02563 49.9048 5.58906 51.607 7.29141C50.6125 7.29141 48.114 7.29469 48.114 7.29469V10.7344H56.912V7.29406L53.3978 3.84859ZM68.4992 15.7987L63.155 73.6872L39.9998 79.9216L16.8442 73.6872L11.5007 15.7987H68.4992ZM57.7307 27.5694H39.9789H21.9132L22.7771 34.5598H39.9789H40.9451L39.9789 34.962L23.4059 41.8647L23.9556 48.6975L39.9789 48.7495L48.5668 48.7769L48.0167 57.888L39.9789 60.1511V60.1439L39.9129 60.162L32.1498 58.2023L31.6787 52.5469H31.6531H24.4523H24.427L25.3695 63.465L39.9789 67.7852V67.7773L40.0051 67.7852L54.5364 63.5436L56.4218 41.8648H39.9789H39.9382L39.9789 41.8473L57.0236 34.56L57.7307 27.5694Z" fill="#F0DE36"/>
</svg>
