<svg width="80" height="80" viewBox="0 0 80 80" fill="none" xmlns="http://www.w3.org/2000/svg">
<path d="M6.4634 43.533C4.5122 41.5818 4.5122 38.4182 6.4634 36.467L36.467 6.4634C38.4182 4.5122 41.5818 4.5122 43.533 6.4634L73.5365 36.467C75.4877 38.4182 75.4877 41.5818 73.5365 43.533L43.533 73.5365C41.5818 75.4877 38.4182 75.4877 36.467 73.5365L6.4634 43.533Z" fill="#F0DE36"/>
<path d="M30.3722 12.6538L27.334 15.6922L35.1812 23.5394C34.8637 24.2205 34.6865 24.98 34.6865 25.781C34.6865 28.055 36.1152 29.9953 38.124 30.753V49.9495C36.1152 50.7072 34.6865 52.6475 34.6865 54.9215C34.6865 57.8555 37.065 60.234 39.999 60.234C42.933 60.234 45.3115 57.8555 45.3115 54.9215C45.3115 52.86 44.1372 51.0725 42.421 50.192V30.7793L49.9222 38.2805C49.6202 38.9477 49.4522 39.6885 49.4522 40.4685C49.4522 43.4025 51.8307 45.781 54.7647 45.781C57.6987 45.781 60.0772 43.4025 60.0772 40.4685C60.0772 37.5345 57.6987 35.156 54.7647 35.156C54.1945 35.156 53.6455 35.2457 53.1305 35.412L45.0742 27.3558C45.2285 26.8583 45.3115 26.3293 45.3115 25.781C45.3115 22.847 42.933 20.4685 39.999 20.4685C39.4507 20.4685 38.922 20.5515 38.4242 20.7058L30.3722 12.6538Z" fill="white"/>
</svg>
