<svg width="80" height="80" viewBox="0 0 80 80" fill="none" xmlns="http://www.w3.org/2000/svg">
<path d="M37.3074 20.2C37.2449 20.38 36.9549 20.3525 36.7899 20.405C36.6424 20.4825 36.5224 20.6175 36.3524 20.6175C36.1974 20.6175 35.9474 20.555 35.9274 20.405C35.8974 20.2 36.2024 19.99 36.3949 19.99C36.5199 19.93 36.6649 19.8975 36.8174 19.8975C36.9574 19.8975 37.0899 19.925 37.2099 19.9775L37.2024 19.975C37.2574 19.9975 37.2974 20.05 37.2974 20.1125C37.2974 20.12 37.2974 20.125 37.2949 20.1325V20.195H37.3049L37.3074 20.2ZM39.0274 20.2V20.1325C39.0074 20.07 39.0674 20.0025 39.1174 19.9775C39.2324 19.9275 39.3674 19.8975 39.5099 19.8975C39.6624 19.8975 39.8074 19.9325 39.9349 19.9925L39.9299 19.99C40.1274 19.99 40.4299 20.2 40.3974 20.4125C40.3799 20.565 40.1324 20.6175 39.9749 20.6175C39.8024 20.6175 39.6874 20.4825 39.5349 20.405C39.3724 20.3475 39.0799 20.38 39.0249 20.2025L39.0274 20.2ZM42.4074 25.145C41.0774 25.9875 39.5049 26.58 37.8199 26.81L37.7599 26.8175C36.2449 26.73 34.8674 26.1975 33.7424 25.3475L33.7599 25.36C33.2799 24.9425 32.8849 24.5225 32.5949 24.3125C32.0824 23.895 32.1449 23.2725 32.3649 23.2725C32.7049 23.3225 32.7674 23.69 32.9874 23.8975C33.2874 24.1025 33.6599 24.5225 34.1124 24.9375C35.1049 25.7575 36.3599 26.29 37.7374 26.395L37.7599 26.3975C39.3949 26.255 40.8824 25.73 42.1674 24.9175L42.1274 24.9425C42.7374 24.52 43.5174 23.9 44.1524 23.4825C44.6399 23.0575 44.6174 22.6475 45.0249 22.6475C45.4249 22.6975 45.1324 23.065 44.5649 23.685C43.9499 24.155 43.2474 24.6375 42.5199 25.085L42.4099 25.1475L42.4074 25.145ZM20.0424 53.4925H20.0724C20.2449 53.4925 20.4149 53.51 20.5799 53.54L20.5624 53.5375C21.9224 53.8875 23.0424 54.7325 23.7449 55.865L23.7574 55.8875L26.5999 61.085L26.6099 61.095C27.7524 63.0275 28.9799 64.7 30.3524 66.2425L30.3249 66.21C31.5499 67.51 32.3749 69.2 32.5974 71.075L32.6024 71.115V71.135C32.5724 73.1775 31.0699 74.8625 29.1124 75.175L29.0899 75.1775C28.5899 75.255 28.0099 75.2975 27.4224 75.2975C25.2799 75.2975 23.2749 74.715 21.5549 73.6975L21.6074 73.7275C18.9749 72.625 15.9199 71.9425 12.7199 71.8475H12.6824C11.7524 71.785 10.9424 71.31 10.4299 70.6075L10.4249 70.6C10.2899 70.165 10.2124 69.665 10.2124 69.145C10.2124 68.27 10.4324 67.4475 10.8224 66.73L10.8099 66.7575V66.745L10.8174 66.735C10.9199 66.265 10.9799 65.7225 10.9799 65.1675C10.9799 64.4825 10.8899 63.82 10.7199 63.19L10.7324 63.2425C10.6299 62.8675 10.5699 62.435 10.5699 61.9875C10.5699 61.3825 10.6774 60.805 10.8774 60.27L10.8674 60.305C11.3674 59.2625 12.1049 59.055 13.0224 58.64C14.1174 58.3075 15.0699 57.805 15.8999 57.1575L15.8799 57.1725H15.8849V57.165C16.6849 56.3275 17.2749 55.2875 17.9724 54.5475C18.4599 53.925 19.2024 53.5225 20.0399 53.4975H20.0449L20.0424 53.4925ZM53.8274 53.34C53.8249 53.3825 53.8249 53.435 53.8249 53.4875C53.8249 55.345 54.9474 56.94 56.5524 57.6325L56.5824 57.645C56.7024 57.6525 56.8424 57.6575 56.9824 57.6575C59.0599 57.6575 60.9199 56.73 62.1699 55.265L62.1774 55.255L62.8374 55.225C62.9699 55.205 63.1224 55.195 63.2774 55.195C64.1299 55.195 64.9074 55.525 65.4849 56.065L65.4824 56.0625L65.4924 56.0725C66.1149 56.825 66.5474 57.755 66.7099 58.7775L66.7149 58.81C66.8524 60.0725 67.3099 61.21 68.0074 62.16L67.9949 62.14C69.0349 63.03 69.7574 64.265 69.9774 65.6675L69.9824 65.7L69.9924 65.6775V65.7325L69.9824 65.695C69.9349 66.5125 69.4049 66.9325 68.4274 67.555C65.4674 68.7975 62.9249 70.45 60.7349 72.475L60.7524 72.46C59.2324 74.44 56.9999 75.8075 54.4449 76.175L54.3924 76.18C54.2074 76.205 53.9924 76.22 53.7749 76.22C51.8549 76.22 50.2049 75.06 49.4849 73.405L49.4724 73.375L49.4574 73.365C49.2249 72.65 49.0924 71.8275 49.0924 70.975C49.0924 69.935 49.2899 68.9425 49.6524 68.03L49.6324 68.085C50.2174 66.415 50.7199 64.42 51.0524 62.365L51.0799 62.1575C51.1199 60.1275 51.3399 58.175 51.7249 56.2825L51.6899 56.49C51.9024 55.195 52.6424 54.105 53.6749 53.4275L53.6924 53.4175L53.8324 53.35L53.8274 53.34ZM46.9999 25.355C48.4999 30.7225 50.3474 35.36 52.6174 39.7475L52.4199 39.33C53.9524 42.055 55.1449 45.2175 55.8274 48.5675L55.8624 48.7775C55.8849 48.7775 55.9124 48.7775 55.9399 48.7775C56.4824 48.7775 57.0074 48.85 57.5074 48.9875L57.4649 48.9775C57.7399 47.99 57.8974 46.8575 57.8974 45.6875C57.8974 42.1225 56.4299 38.8975 54.0649 36.59L54.0624 36.5875C53.3749 35.9625 53.3374 35.54 53.6774 35.54C56.1049 37.815 57.8999 40.735 58.7899 44.025L58.8199 44.1525C59.0424 44.975 59.1699 45.92 59.1699 46.895C59.1699 47.7725 59.0674 48.6275 58.8724 49.445L58.8874 49.37C59.0724 49.465 59.2874 49.5375 59.5149 49.5775L59.5299 49.58C62.7549 51.2475 63.9449 52.51 63.3724 54.3825V54.2475C63.1849 54.2375 62.9974 54.2475 62.8099 54.2475H62.7599C63.2324 52.7875 62.1924 51.67 59.4324 50.4225C56.5749 49.1725 54.2899 49.3725 53.9024 51.875C53.8749 51.9975 53.8549 52.14 53.8474 52.2875V52.295C53.6649 52.37 53.4474 52.44 53.2224 52.49L53.1949 52.495C51.9249 53.335 51.0199 54.6425 50.7224 56.1675L50.7174 56.2025C50.3474 57.94 50.1149 59.9525 50.0774 62.01V62.04V62.05C49.8499 63.6425 49.5024 65.0675 49.0324 66.4325L49.0824 66.2675C46.6249 68.2775 43.4549 69.4925 39.9974 69.4925C37.1724 69.4925 34.5374 68.68 32.3149 67.275L32.3749 67.31C32.0099 66.6775 31.5924 66.13 31.1174 65.6425L31.1199 65.645C30.8774 65.245 30.5924 64.9025 30.2649 64.6075L30.2599 64.605C30.7774 64.605 31.2774 64.5275 31.7499 64.385L31.7124 64.395C32.1624 64.1825 32.5074 63.815 32.6899 63.365L32.6949 63.3525C32.7399 63.12 32.7674 62.855 32.7674 62.5825C32.7674 61.47 32.3299 60.4625 31.6149 59.7175L31.6174 59.72C30.0699 57.8175 28.2199 56.2325 26.1274 55.02L26.0324 54.97C24.3549 54 23.0849 52.4825 22.4574 50.665L22.4399 50.61C22.2074 49.815 22.0724 48.9 22.0724 47.955C22.0724 47.0725 22.1899 46.2175 22.4074 45.4025L22.3924 45.47C23.3349 42.185 24.6949 39.3175 26.4424 36.73L26.3724 36.8375C26.7074 36.635 26.4874 37.26 25.0974 39.88C23.9124 41.6625 23.2049 43.855 23.2049 46.2125C23.2049 48.3125 23.7649 50.28 24.7449 51.9775L24.7149 51.9225C24.8449 48.65 25.5774 45.58 26.7999 42.775L26.7374 42.9375C29.3749 38.1825 31.3724 32.66 32.4249 26.8075L32.4749 26.48C32.6249 26.5925 33.1524 26.9025 33.3774 27.11C34.0574 27.525 34.5649 28.15 35.2199 28.5625C35.8874 29.2125 36.8024 29.6125 37.8074 29.6125C37.8599 29.6125 37.9124 29.6125 37.9649 29.61H37.9574C38.0799 29.62 38.1924 29.63 38.2999 29.63C39.4474 29.6075 40.5174 29.3 41.4474 28.775L41.4149 28.7925C42.3199 28.375 43.0399 27.75 43.7274 27.5425H43.7424C45.0799 27.18 46.1999 26.4075 46.9924 25.37L47.0024 25.355H46.9999ZM38.2524 18.6625C38.2599 18.6625 38.2674 18.6625 38.2749 18.6625C39.6974 18.6625 41.0099 19.13 42.0674 19.92L42.0499 19.9075C42.9949 20.4925 44.0849 20.99 45.2374 21.3425L45.3374 21.3675H45.3474C45.9624 21.6425 46.4699 22.07 46.8324 22.6025L46.8399 22.615V22.205C46.9549 22.435 47.0249 22.7075 47.0249 22.995C47.0249 23.24 46.9749 23.4725 46.8874 23.685L46.8924 23.6725C46.1724 24.94 45.0049 25.8825 43.6099 26.2925L43.5699 26.3025V26.3075C42.7324 26.73 42.0049 27.3475 41.1499 27.76C40.2749 28.285 39.2224 28.595 38.0949 28.595C38.0574 28.595 38.0199 28.595 37.9824 28.595H37.9874C37.9324 28.5975 37.8674 28.6 37.8024 28.6C37.3674 28.6 36.9474 28.5225 36.5624 28.3775L36.5874 28.385C36.1899 28.1675 35.8624 27.9625 35.5449 27.7425L35.5799 27.7675C35.0124 27.27 34.3874 26.7925 33.7324 26.355L33.6674 26.315V26.3H33.6524C32.7149 25.8025 31.9774 25.04 31.5224 24.11L31.5099 24.08C31.4424 23.9125 31.4049 23.7175 31.4049 23.515C31.4049 22.97 31.6849 22.49 32.1074 22.21L32.1124 22.2075C32.8124 21.785 33.2999 21.36 33.6224 21.1575C33.9474 20.9275 34.0699 20.84 34.1724 20.7475H34.1774V20.7375C34.8474 19.89 35.7349 19.24 36.7574 18.8725L36.7974 18.86C37.2324 18.735 37.7324 18.6625 38.2499 18.6575L38.2524 18.6625ZM33.9724 13.3325H34.0849C34.5549 13.3425 34.9874 13.5 35.3374 13.7575L35.3324 13.7525C35.7799 14.15 36.1449 14.6325 36.3949 15.1775L36.4049 15.205C36.6874 15.8175 36.8624 16.53 36.8824 17.28V17.2875V17.3C36.8924 17.415 36.8974 17.5475 36.8974 17.68C36.8974 17.8375 36.8899 17.995 36.8749 18.15L36.8774 18.13V18.38C36.7849 18.4025 36.7024 18.435 36.6174 18.455C36.1399 18.6525 35.7374 18.8625 35.3549 19.1L35.3899 19.08C35.4099 18.9425 35.4199 18.785 35.4199 18.625C35.4199 18.4925 35.4124 18.36 35.3974 18.23L35.3999 18.245V18.1975C35.3549 17.8125 35.2649 17.46 35.1324 17.1275L35.1424 17.155C35.0399 16.825 34.8599 16.545 34.6249 16.3225C34.4874 16.1975 34.3049 16.12 34.1024 16.12C34.0849 16.12 34.0674 16.12 34.0499 16.1225H34.0524H33.9874C33.7299 16.15 33.5149 16.31 33.4074 16.53L33.4049 16.535C33.2124 16.7675 33.0799 17.055 33.0299 17.37V17.38C32.9724 17.595 32.9424 17.8425 32.9424 18.0975C32.9424 18.2075 32.9474 18.3175 32.9599 18.425V18.4125V18.46C32.9999 18.845 33.0899 19.2 33.2199 19.53L33.2099 19.5025C33.3149 19.8325 33.4924 20.115 33.7274 20.34C33.7574 20.37 33.7924 20.395 33.8324 20.415H33.8349C33.6274 20.5475 33.4474 20.6875 33.2824 20.8425L33.2849 20.84C33.1724 20.94 33.0349 21.015 32.8824 21.05L32.8749 21.0525C32.5674 20.685 32.2824 20.2725 32.0374 19.8375L32.0174 19.7975C31.7349 19.185 31.5599 18.475 31.5324 17.7225V17.7125C31.5224 17.5925 31.5174 17.4525 31.5174 17.31C31.5174 16.7075 31.6149 16.1275 31.7924 15.585L31.7824 15.625C31.9674 14.98 32.2699 14.4225 32.6724 13.9475L32.6674 13.955C32.9849 13.58 33.4499 13.3425 33.9724 13.33H33.9749L33.9724 13.3325ZM43.2274 13.1475H43.2674C43.2699 13.1475 43.2724 13.1475 43.2774 13.1475C43.9649 13.1475 44.5949 13.38 45.0999 13.77L45.0924 13.765C45.6649 14.2075 46.1249 14.765 46.4474 15.4025L46.4599 15.43C46.7624 16.095 46.9499 16.8675 46.9774 17.6825V17.6925C46.9774 17.63 46.9949 17.5675 46.9949 17.505V17.8325L46.9824 17.7675L46.9699 17.6925C46.9624 18.4925 46.7924 19.2475 46.4874 19.935L46.5024 19.9C46.3474 20.3075 46.1224 20.6575 45.8374 20.9475C45.7624 20.9025 45.6699 20.86 45.5774 20.8225L45.5624 20.8175C45.2249 20.7125 44.9299 20.57 44.6624 20.395L44.6749 20.4025C44.4824 20.3225 44.2524 20.2525 44.0149 20.2L43.9874 20.195C44.1899 20.005 44.3774 19.8025 44.5499 19.5875L44.5599 19.575C44.7174 19.205 44.8149 18.7775 44.8349 18.3275V18.32V18.2575C44.8349 18.2375 44.8349 18.2175 44.8349 18.195C44.8349 17.77 44.7649 17.3625 44.6349 16.9825L44.6424 17.01C44.4849 16.6125 44.2924 16.27 44.0624 15.9575L44.0724 15.97C43.8549 15.75 43.5674 15.6 43.2449 15.5575H43.2374H43.1874C43.1849 15.5575 43.1799 15.5575 43.1774 15.5575C42.8474 15.5575 42.5524 15.72 42.3724 15.9675L42.3699 15.97C42.0799 16.2525 41.8599 16.6025 41.7349 16.995L41.7299 17.0125C41.5724 17.38 41.4699 17.8075 41.4499 18.2525V18.26V18.32C41.4549 18.62 41.4774 18.91 41.5174 19.1925L41.5124 19.155C40.9099 18.945 40.1449 18.7325 39.6149 18.525C39.5849 18.3425 39.5649 18.1275 39.5599 17.9075V17.9V17.8375C39.5574 17.7875 39.5574 17.73 39.5574 17.6725C39.5574 16.8625 39.7299 16.095 40.0424 15.4025L40.0274 15.4375C40.2924 14.74 40.7599 14.1675 41.3574 13.78L41.3699 13.7725C41.8799 13.3825 42.5274 13.1475 43.2274 13.1475ZM41.5749 2.51C41.0899 2.51 40.5899 2.535 40.0749 2.575C26.8724 3.615 30.3749 17.5925 30.1724 22.25C30.0474 25.815 28.8374 29.0725 26.8599 31.73L26.8924 31.685C23.3749 35.69 20.5049 40.37 18.5149 45.4925L18.4074 45.81C17.7624 47.5225 17.3874 49.5 17.3874 51.565C17.3874 52.2775 17.4324 52.98 17.5174 53.6675L17.5099 53.585C17.3699 53.7 17.2524 53.84 17.1699 54L17.1674 54.0075C16.3549 54.845 15.7624 55.8825 15.0949 56.6275C14.3874 57.17 13.5574 57.5975 12.6574 57.8625L12.6049 57.875C11.4449 58.2225 10.4999 58.98 9.91744 59.9775L9.90494 60C9.64494 60.53 9.49244 61.1525 9.49244 61.8125C9.49244 61.8375 9.49244 61.86 9.49244 61.885C9.49744 62.48 9.55744 63.055 9.67494 63.615L9.66494 63.5575C9.80494 64.105 9.88494 64.735 9.88494 65.3825C9.88494 65.8075 9.84994 66.225 9.78244 66.6325L9.78744 66.5875C9.36994 67.37 9.12744 68.3 9.12744 69.2875C9.12744 69.9825 9.24744 70.6475 9.46994 71.265L9.45744 71.225C10.1399 72.195 11.1724 72.88 12.3674 73.0975L12.3949 73.1025C15.5799 73.37 18.5224 74.035 21.2974 75.0525L21.0624 74.9775C22.8074 76.015 24.9099 76.6275 27.1524 76.6275C27.8874 76.6275 28.6074 76.5625 29.3074 76.435L29.2349 76.445C30.9024 76.0675 32.2624 74.98 32.9949 73.5225L33.0099 73.49C34.8449 73.48 36.8524 72.65 40.0699 72.4475C42.2524 72.2675 44.9874 73.2825 48.1199 73.0725C48.2124 73.47 48.3349 73.8175 48.4899 74.145L48.4749 74.1125L48.4849 74.1225C49.4449 76.1325 51.4599 77.4975 53.7949 77.4975C53.9974 77.4975 54.1974 77.4875 54.3949 77.4675L54.3699 77.47C57.2474 77.045 59.7174 75.55 61.4024 73.4125L61.4199 73.39C63.5274 71.47 65.9874 69.8875 68.6824 68.7575L68.8499 68.695C69.9299 68.2175 70.7049 67.2325 70.8749 66.0475L70.8774 66.03C70.7299 64.295 69.8974 62.7825 68.6574 61.74L68.6474 61.7325V61.43L68.6374 61.42C68.1024 60.595 67.7274 59.615 67.5849 58.565L67.5799 58.5275C67.4474 57.245 66.8849 56.1125 66.0424 55.26H66.0324C65.8474 55.0925 65.6474 55.05 65.4449 54.8375C65.2799 54.72 65.0749 54.6475 64.8524 54.6375C65.3399 53.1325 65.6199 51.4025 65.6199 49.605C65.6199 47.255 65.1374 45.0175 64.2674 42.9875L64.3099 43.0975C62.5499 38.9175 60.2624 35.32 57.4799 32.175L57.5149 32.2175C54.7524 29.5125 52.9449 25.84 52.6449 21.75L52.6424 21.6975C52.7249 14.975 53.3799 2.5375 41.5699 2.52L41.5749 2.51Z" fill="#F0DE36"/>
</svg>
