<svg width="80" height="80" viewBox="0 0 80 80" fill="none" xmlns="http://www.w3.org/2000/svg">
<path fill-rule="evenodd" clip-rule="evenodd" d="M72.543 16.0938H7.42481C3.30381 16.0938 -0.0322329 19.4625 0.000235 23.5508V48.4076C0.000235 52.5285 3.33652 55.8646 7.45752 55.8646H38.2995L52.396 63.7141L49.1908 55.8646H72.543C76.6641 55.8646 80 52.5285 80 48.4076V23.5508C80 19.4298 76.6641 16.0938 72.543 16.0938ZM6.05129 21.85C5.1355 21.9155 4.44866 22.2425 3.99078 22.8639C3.53289 23.4527 3.36937 24.2049 3.46748 25.0553C5.39715 37.3202 7.19599 45.5948 8.86402 49.8794C9.51815 51.4492 10.2704 52.2016 11.1535 52.1362C12.5271 52.0379 14.1624 50.141 16.0921 46.4453C17.106 44.3519 18.6759 41.2123 20.8018 37.0257C22.5679 43.2072 24.9881 47.8516 28.0299 50.9587C28.8804 51.8417 29.7634 52.2342 30.6136 52.1688C31.366 52.1034 31.9546 51.7109 32.3471 50.9913C32.6742 50.3699 32.805 49.6503 32.7396 48.8327C32.5433 45.8565 32.8378 41.7028 33.6554 36.3716C34.5057 30.877 35.5523 26.9195 36.8279 24.5647C37.0896 24.0741 37.1876 23.5835 37.155 22.9948C37.0896 22.2425 36.7625 21.6211 36.1411 21.1305C35.5197 20.6399 34.8327 20.411 34.0805 20.4764C33.1321 20.5418 32.4125 20.9997 31.922 21.9155C29.8942 25.6113 28.455 31.5965 27.6048 39.9039C26.3619 36.7641 25.3152 33.0683 24.4976 28.7184C24.1379 26.7887 23.2549 25.8729 21.8157 25.971C20.8345 26.0364 20.0169 26.6906 19.3627 27.9334L12.2001 41.5719C11.0226 36.8295 9.91062 31.0405 8.89673 24.2049C8.66779 22.5042 7.71929 21.7192 6.05129 21.85ZM69.0763 24.205C71.3985 24.6956 73.132 25.9384 74.3093 27.9989C75.356 29.7651 75.8791 31.891 75.8791 34.4421C75.8791 37.8107 75.0289 40.8852 73.328 43.6979C71.3657 46.9686 68.8146 48.6038 65.6422 48.6038C65.0862 48.6038 64.4975 48.5384 63.8759 48.4076C61.5539 47.917 59.8204 46.6743 58.6429 44.6138C57.5964 42.8149 57.0731 40.6563 57.0731 38.1378C57.0731 34.7691 57.9235 31.6947 59.6242 28.9147C61.6193 25.6441 64.1704 24.0088 67.3102 24.0088C67.8662 24.0088 68.4549 24.0742 69.0763 24.205ZM67.7027 41.899C68.9128 40.8197 69.7305 39.2171 70.1884 37.0585C70.3192 36.3063 70.4172 35.4887 70.4172 34.6383C70.4172 33.6898 70.221 32.6759 69.8285 31.662C69.338 30.3865 68.6838 29.6997 67.8988 29.5361C66.7215 29.3072 65.5768 29.9613 64.4975 31.5639C63.6144 32.8068 63.0583 34.115 62.764 35.456C62.6004 36.2082 62.5349 37.0259 62.5349 37.8436C62.5349 38.792 62.7312 39.8059 63.1237 40.8197C63.6144 42.0953 64.2684 42.7821 65.0534 42.9457C65.871 43.1092 66.7541 42.7495 67.7027 41.899ZM53.8024 27.9989C52.6249 25.9384 50.8588 24.6956 48.5694 24.205C47.9478 24.0742 47.3593 24.0088 46.8031 24.0088C43.6635 24.0088 41.1124 25.6441 39.1173 28.9147C37.4164 31.6947 36.5662 34.7691 36.5662 38.1378C36.5662 40.6563 37.0896 42.8149 38.136 44.6138C39.3135 46.6743 41.047 47.917 43.369 48.4076C43.9904 48.5384 44.5791 48.6038 45.1353 48.6038C48.3077 48.6038 50.8588 46.9686 52.8211 43.6979C54.522 40.8852 55.3722 37.8107 55.3722 34.4421C55.3722 31.891 54.8489 29.7651 53.8024 27.9989ZM49.6813 37.0585C49.2236 39.2171 48.4058 40.8197 47.1956 41.899C46.2472 42.7495 45.3642 43.1092 44.5465 42.9457C43.7615 42.7821 43.1074 42.0953 42.6168 40.8197C42.2243 39.8059 42.0281 38.792 42.0281 37.8436C42.0281 37.0259 42.0935 36.2082 42.2571 35.456C42.5514 34.115 43.1073 32.8068 43.9904 31.5639C45.0699 29.9613 46.2146 29.3072 47.3919 29.5361C48.1769 29.6997 48.8311 30.3865 49.3216 31.662C49.7141 32.6759 49.9104 33.6898 49.9104 34.6383C49.9104 35.4887 49.845 36.3063 49.6813 37.0585Z" fill="#F0DE36"/>
</svg>
