<svg width="80" height="80" viewBox="0 0 80 80" fill="none" xmlns="http://www.w3.org/2000/svg">
<path d="M62.6647 35C63.245 35.643 63.3827 36.747 63.0792 38.3109C62.7622 39.9398 62.1519 41.1019 61.2475 41.7984C60.3423 42.495 58.9659 42.8433 57.1175 42.8433H54.3286L56.0406 34.0355H59.1817C60.9239 34.0355 62.0844 34.3572 62.6647 35ZM23.3991 34.0355H20.258L18.5458 42.8433H21.3345C23.1825 42.8433 24.5594 42.495 25.4645 41.7984C26.3691 41.1019 26.9792 39.9397 27.2962 38.3109C27.5997 36.7469 27.4619 35.643 26.8817 35C26.3016 34.3572 25.1411 34.0355 23.3991 34.0355ZM79.9219 40C79.9219 51.5983 62.048 61.0005 40 61.0005C17.952 61.0005 0.078125 51.5983 0.078125 40C0.078125 28.4019 17.952 18.9995 40 18.9995C62.048 18.9995 79.9219 28.4019 79.9219 40ZM31.0222 41.4509C31.4972 40.5997 31.8352 39.6602 32.0352 38.6327C32.5198 36.1378 32.1541 34.1947 30.9377 32.8025C29.7219 31.4103 27.7869 30.7145 25.1352 30.7145H16.3191L12.2289 51.7595H16.8136L17.9008 46.165H21.828C23.5603 46.165 24.9858 45.9831 26.1048 45.6186C27.2237 45.2547 28.2406 44.6447 29.1561 43.7875C29.9241 43.0813 30.5458 42.3028 31.0222 41.4509ZM47.1584 46.165L49.0617 36.3709C49.4491 34.3792 49.1584 32.938 48.1911 32.0484C47.223 31.1597 45.4647 30.7145 42.9148 30.7145H38.8628L39.9505 25.1192H35.402L31.3111 46.1648H35.8595L38.2027 34.1078H41.8381C43.0019 34.1078 43.7627 34.3003 44.12 34.6856C44.4773 35.0711 44.5533 35.7936 44.3473 36.8527L42.5378 46.1648H47.1584V46.165ZM66.7205 32.8027C65.5048 31.4105 63.5698 30.7147 60.9181 30.7147H52.1019L48.0116 51.7597H52.5964L53.6834 46.1652H57.6108C59.343 46.1652 60.7686 45.9833 61.8875 45.6188C63.0064 45.2548 64.0233 44.6448 64.9388 43.7877C65.7075 43.0813 66.3288 42.303 66.8048 41.4511C67.2805 40.5998 67.6177 39.6603 67.8178 38.6328C68.3027 36.1378 67.9369 34.1947 66.7205 32.8027Z" fill="#F0DE36"/>
</svg>
