<svg width="80" height="80" viewBox="0 0 80 80" fill="none" xmlns="http://www.w3.org/2000/svg">
<path d="M16.9795 0.0782814H20.5782V3.63391H23.8703V0.0782814H27.4693V10.8453H23.8706V7.23969H20.5785V10.8453H16.9798V0.0782814H16.9795ZM32.2017 3.64891H29.0337V0.0782814H38.9703V3.64891H35.8007V10.8453H32.202V3.64891H32.2017ZM40.5471 0.0782814H44.3003L46.6082 3.86156L48.9143 0.0782814H52.6679V10.8453H49.0839V5.50875L46.6081 9.33687H46.5464L44.0689 5.50875V10.8453H40.5471V0.0782814ZM54.4593 0.0782814H58.059V7.28656H63.1201V10.8453H54.4593V0.0782814ZM11.7167 15.7697L16.8645 73.5092L39.9651 79.9217L63.1298 73.5L68.2831 15.7695L11.7167 15.7697ZM57.5451 29.4719L57.2228 33.062L57.0812 34.6539H57.0579H40H39.9753H29.9821L30.6293 41.905H39.9753H40H54.5281H56.4365L56.2637 43.8069L54.5996 62.4506L54.4931 63.6462L40 67.6633V67.6645L39.9675 67.6737L25.4614 63.6466L24.469 52.5276H27.7456H31.5779L32.0821 58.1755L39.9687 60.3055L39.9753 60.3034V60.3028L47.8739 58.1716L48.6953 48.987H40H39.9753H24.1528L22.4123 29.4719L22.2428 27.5723H39.9753H40H57.7146L57.5451 29.4719Z" fill="#F0DE36"/>
</svg>
