<svg width="80" height="80" viewBox="0 0 80 80" fill="none" xmlns="http://www.w3.org/2000/svg">
<path d="M69.2368 57.4998C69.7075 56.6543 70 55.7017 70 54.8462V25.1533C70 24.2978 69.7078 23.3455 69.2368 22.5L40 40L69.2368 57.4998Z" fill="#F0DE36"/>
<path d="M42.5988 74.3582L67.4028 59.5118C68.1173 59.084 68.7668 58.3455 69.2375 57.5L40.0008 40L10.7642 57.5C11.235 58.3455 11.8846 59.0843 12.5989 59.5118L37.4028 74.3582C38.8315 75.2137 41.17 75.2137 42.5988 74.3582Z" fill="#F0DE36"/>
<path d="M69.2367 22.4999C68.766 21.6542 68.1162 20.9157 67.402 20.488L42.598 5.64155C41.1692 4.78615 38.8307 4.78615 37.402 5.64155L12.598 20.488C11.169 21.3432 10 23.4427 10 25.1533V54.8465C10 55.7018 10.2923 56.6545 10.7633 57.5L40 40L69.2367 22.4999Z" fill="#F0DE36"/>
<path d="M40.0962 60C29.0152 60 20 51.028 20 40C20 28.972 29.0152 20 40.0962 20C47.1145 20 53.6685 23.6892 57.2975 29.6545L48.6912 34.8163C46.873 31.84 43.5997 30 40.0962 30C34.5555 30 30.0483 34.486 30.0483 40C30.0483 45.514 34.5555 50 40.0962 50C43.5905 50 46.8552 48.1703 48.6767 45.208L57.3012 50.3398C53.673 56.3085 47.1167 60 40.0962 60Z" fill="white"/>
<path fill-rule="evenodd" clip-rule="evenodd" d="M62.5002 32.5V34.9935H57.4998V32.5H55.0002V34.9935H52.5V37.5H55.0002V42.487H52.5V45H55.0002V47.5H57.4998L57.5 45H62.5002V47.5H64.9998V45H67.5V42.5H64.9998V37.5H67.5V34.9935H64.9998V32.5H62.5002ZM62.5002 42.5V37.5H57.4998V42.487L62.5002 42.5Z" fill="white"/>
</svg>
