<svg width="80" height="80" viewBox="0 0 80 80" fill="none" xmlns="http://www.w3.org/2000/svg">
<path d="M69.9855 16.3006L44.7866 1.33968C41.7916 -0.446562 38.0583 -0.446562 35.0633 1.33968L9.8594 16.3006C6.82771 18.1295 4.98189 21.4186 5.00013 24.9592V54.8759C4.98367 58.4147 6.82926 61.7015 9.8594 63.5295L35.0583 78.4853C38.0536 80.2705 41.7863 80.2705 44.7816 78.4853L69.9804 63.5295C73.0141 61.7018 74.8619 58.4125 74.8447 54.8709V24.9592C74.863 21.4186 73.0172 18.1295 69.9855 16.3006Z" fill="white"/>
<path d="M70.1286 16.3365L44.8742 1.34264C41.8727 -0.447545 38.1311 -0.447545 35.1295 1.34264L9.8701 16.3365C6.83173 18.1694 4.98185 21.4658 5.00013 25.0142V54.9968C4.98364 58.5434 6.83329 61.8374 9.8701 63.6694L35.1245 78.6582C38.1264 80.4473 41.8673 80.4473 44.8692 78.6582L70.1235 63.6694C73.1639 61.8377 75.0158 58.5411 74.9986 54.9917V25.0142C75.0168 21.4658 73.167 18.1694 70.1286 16.3365ZM36.0094 77.1259L10.7551 62.1372C8.2594 60.6249 6.73933 57.9149 6.74991 54.9968V25.0142C6.73832 22.0958 8.25866 19.3853 10.7551 17.8738L36.0094 2.87995C38.4673 1.41362 41.5314 1.41362 43.9893 2.87995L69.2234 17.8738C71.3036 19.1337 72.7226 21.2466 73.1021 23.6488C72.2626 21.8637 70.3764 21.3732 68.1766 22.6374L44.3028 37.4239C41.3243 39.1584 39.1296 41.1155 39.1245 44.7059V74.1474C39.1245 76.2966 39.9892 77.6873 41.3243 78.0969C40.8871 78.177 40.4438 78.2193 39.9994 78.2233C38.595 78.2223 37.2168 77.8432 36.0094 77.1259Z" fill="#F0DE36"/>
<path d="M63.4399 57.8312L57.1629 61.5853C56.9947 61.6529 56.8821 61.813 56.8752 61.994V63.644C56.8752 63.8458 57.0115 63.9266 57.178 63.8307L63.5509 59.9555C63.7069 59.8385 63.7816 59.642 63.7426 59.4509V58.0028C63.7376 57.8161 63.5912 57.7353 63.4399 57.8312Z" fill="white"/>
<path d="M50.0823 44.01C50.2841 43.909 50.4506 44.01 50.4556 44.2976L50.4758 46.4875C51.2307 46.1445 52.0728 46.0423 52.8877 46.1948C53.0441 46.2352 53.1097 46.4471 53.0492 46.6994L52.5698 48.6218C52.5335 48.7669 52.4585 48.8995 52.3529 49.0053C52.3158 49.0419 52.2732 49.0726 52.2267 49.0961C52.1697 49.127 52.1039 49.1377 52.04 49.1264C51.2454 48.9504 50.4135 49.084 49.7139 49.4998C48.6909 49.9607 48.0222 50.9667 47.9933 52.0883C47.9933 53.0975 48.4979 53.375 50.2589 53.4053C52.585 53.4456 53.5941 54.4599 53.6194 56.8062C53.564 59.2553 52.4347 61.5562 50.5313 63.0983L50.5717 65.2478C50.5681 65.5148 50.4294 65.7618 50.2033 65.9038L48.9318 66.6354C48.73 66.7364 48.5635 66.6354 48.5584 66.3529V64.2387C47.4685 64.6928 46.3635 64.7988 45.6571 64.5162C45.5259 64.4657 45.4653 64.2689 45.5208 64.0419L45.98 62.0992C46.0149 61.9455 46.0938 61.8053 46.2071 61.6956C46.243 61.6612 46.2838 61.6323 46.3282 61.6098C46.3939 61.5802 46.4692 61.5802 46.535 61.6098C47.4345 61.8537 48.394 61.7322 49.2043 61.2717C50.3736 60.7078 51.1335 59.5417 51.1772 58.2442C51.1772 57.1543 50.5767 56.7002 49.1589 56.6901C47.3272 56.6901 45.6268 56.3369 45.5915 53.6626C45.6336 51.3263 46.7182 49.1312 48.5483 47.6783L48.4575 45.4783C48.4567 45.2075 48.596 44.9555 48.8258 44.8122L50.0823 44.01Z" fill="white"/>
</svg>
