<svg width="80" height="80" viewBox="0 0 80 80" fill="none" xmlns="http://www.w3.org/2000/svg">
<g clip-path="url(#clip0_4_115)">
<path fill-rule="evenodd" clip-rule="evenodd" d="M61.312 73.7285C54.332 73.7285 49.82 70.4008 47.62 66.0488L53.74 62.5039C55.352 65.1359 57.444 67.0684 61.152 67.0684C64.264 67.0684 66.252 65.5113 66.252 63.3633C66.252 60.1313 61.94 58.8685 58.896 57.5645C53.472 55.2565 49.8719 52.3564 49.8719 46.2324C49.8719 40.5964 54.168 36.3008 60.884 36.3008C65.66 36.3008 69.1 37.9645 71.568 42.3125L65.7159 46.0723C64.4279 43.7643 63.032 42.8516 60.884 42.8516C58.68 42.8516 57.2841 44.2483 57.2841 46.0723C57.2841 48.3283 58.6801 49.2407 61.9041 50.6367C68.66 53.5327 73.772 55.8079 73.772 63.2559C73.772 70.0239 68.456 73.7285 61.312 73.7285ZM44 62.3965C44 70.1845 39.2039 74.3008 32.5439 74.3008C26.5279 74.3008 22.924 72 21.152 68H21.092H21.064H21.048L27.1639 63.7246C28.3439 65.8166 29.408 67.3008 31.984 67.3008C34.456 67.3008 36 66.049 36 62.293V36H44V62.3965ZM0 80H80V0H0V80Z" fill="#F0DE36"/>
</g>
<defs>
<clipPath id="clip0_4_115">
<rect width="80" height="80" fill="white"/>
</clipPath>
</defs>
</svg>
