<svg width="535" height="129" viewBox="0 0 535 129" fill="none" xmlns="http://www.w3.org/2000/svg">
<path d="M46.8 87.9C21.1 61.2 21.1 65.7 47 38.5L66.5 18.1L66.8 23.5C67 26.5 66.7 29.6 66.3 30.4C65.9 31.2 59.1 38.6 51.3 46.8C43.4 55.1 37 62.4 37 63.2C37.1 63.9 43.8 71.7 52 80.4L67 96.4V102.2C67 105.4 66.8 108 66.6 108C66.4 108 57.5 99 46.8 87.9Z" fill="#525FE1"/>
<path d="M90.7 88.8C89.9 87.5 85.8 76.9 81.5 65.2C75 47.5 73.9 43.5 74.8 41.6C76.1 38.8 79.1 37.8 82.1 39.4C83.7 40.2 85.6 44 89.2 54C91.9 61.4 94.5 67.9 94.9 68.3C95.3 68.7 98.1 62.8 101 55C106.5 40.4 108 38.3 112.5 39.4C116 40.3 122.7 58.1 122.9 66.7C122.9 70.1 122.5 73.2 122 73.5C121.4 73.8 121 75.2 121 76.6C121 78.4 120.5 79.1 119.4 78.8C118.4 78.6 116.6 75.5 114.8 70.5C113.2 66.1 111.5 62.2 111.1 61.7C110.7 61.3 107.9 67.6 104.9 75.7L99.5 90.5L95.8 90.8C92.8 91.1 91.8 90.7 90.7 88.8Z" fill="#525FE1"/>
<path d="M169.9 90.9C152.2 88.3 142.5 69.7 150.4 53.7C155 44.3 163.6 39 174.2 39C179.2 39 186 41.2 186 42.8C186 43.3 185 45.2 183.7 47.1C181.5 50.4 181.2 50.5 175.8 50.2C172.7 50 169.2 50.4 167.9 51C164.9 52.5 161 56.1 161 57.2C161 57.6 166.2 58 172.6 58H184.1L183.8 63.3L183.5 68.5L171.3 68.8C164.5 68.9 159 69.4 159 69.8C159 72 163.3 76.9 166.5 78.4C170.2 80.2 179.5 80.3 183.3 78.6C184.8 77.9 185 78.4 185 83.3C185 86.4 184.6 89.1 184.1 89.5C182 90.8 174.2 91.5 169.9 90.9Z" fill="#525FE1"/>
<path d="M122.1 89.2C120 85.3 117.1 76.6 117.6 75.8C117.9 75.4 117.6 75 117.1 75C115.2 75 115.9 72.5 118.1 71.1C119.5 70.3 119.9 69.5 119.2 69.1C117.9 68.3 119.6 59 121.1 59C121.6 59 122.5 60.1 123 61.5C123.6 62.9 124.5 65.2 125.1 66.8C126.4 70.2 126.5 70 132.5 53.9C135.1 47.1 137.6 41 138.1 40.4C140 38 143.2 38.1 145.6 40.5C147.5 42.4 147.8 43.3 147.1 45.7C145.7 50.3 132.1 86.9 131 89C129.6 91.7 123.5 91.8 122.1 89.2Z" fill="#525FE1"/>
<path d="M209 91.2C205.2 90 205 88.5 205 56C205 26.6 205.1 24.2 206.8 22.7C209.3 20.5 211.6 20.6 214 23C215.7 24.7 216 26.3 216 34C216 39 216.2 43 216.4 43C216.6 43 218.7 42.1 221.1 41C231.9 36.1 247.5 40.9 253.3 50.9L255.1 53.9L251 55.1C248.8 55.8 247 56.9 247 57.7C247 59.6 246.6 59.4 242.3 55.1C235.7 48.5 226.3 48.3 220.3 54.6C213.4 62 215.2 74 224 78.5C228.2 80.7 235.6 80.4 239.6 77.9C242.6 76.1 243.1 76 243.6 77.4C243.9 78.3 245.4 79 246.9 79C248.3 79 250.2 79.5 251 80C253.1 81.3 249.1 85.3 242.4 88.6C235.7 91.8 228.1 92 221.3 89C217.3 87.3 216.4 87.1 215.5 88.3C214 90.3 210.7 91.8 209 91.2Z" fill="#525FE1"/>
<path d="M175 89.6C175 88.9 176.5 87.9 178.3 87.3C181.1 86.5 181.5 86 181.2 83.4C181 81 181.7 79.8 185.4 76.7C190.2 72.7 193 72.1 195.4 74.6C198.2 77.4 197.3 80.6 192.6 84.7C186.5 90.1 175 93.3 175 89.6Z" fill="#525FE1"/>
<path d="M176 68C176 67.4 177.2 66.5 178.7 65.9C180.8 65.1 181.1 64.7 180 64C178.9 63.3 178.8 62.6 179.8 60.6C180.7 58.6 181.7 58 184.1 58C187.1 58 187.2 57.9 185.8 55.8C185 54.6 182.9 52.9 181.2 52C179.5 51.2 178 50 178 49.3C178 47.5 182.4 41.1 183.7 41C186.3 40.9 193.6 47.8 196.2 52.9C199.7 59.6 199.9 65.2 196.8 67.4C194.2 69.3 176 69.7 176 68Z" fill="#525FE1"/>
<path d="M285.5 90.9C279.5 90 276.5 88.5 271.5 83.9C266.7 79.5 263 71.5 263 65.6C263 44.3 287.6 31.5 304.9 44C308.6 46.7 313 52.2 313 54.2C313 54.6 312 55 310.8 55.2C309 55.4 308.5 56.2 308.4 58.5C308.2 61.5 308.2 61.5 308.7 58.7C309.1 56.3 309.6 55.9 311.8 56.2C314.2 56.5 314.6 57.1 315.4 61.6C318.2 78.2 302.5 93.6 285.5 90.9ZM297.8 77.8C301.4 75.6 304.9 69.3 305 65.1C305 63.7 304.1 60.7 302.9 58.4C297.7 47.5 281.4 47.4 276.1 58.3C273.5 63.6 273.4 67.5 275.9 72C280 79.8 290.2 82.5 297.8 77.8Z" fill="#525FE1"/>
<path d="M248.6 83.3C248.2 82.9 246.4 82.7 244.6 82.8C241.7 83 241.1 82.7 240.5 80.3C240.1 78.7 240.3 77.4 240.9 77.2C241.5 77 242.9 75.3 244.1 73.4C246.8 68.9 246.9 61.8 244.3 56.4L242.3 52.3L244.7 52.8C246.6 53.2 247 52.8 247 50.9C247.1 48.9 247.2 48.8 248 50.1C248.6 51.1 249.8 51.6 251.3 51.3C253.4 50.9 254 51.5 255.5 55.2C258.1 61.7 257.7 70 254.6 76.4C251.8 82.1 249.8 84.4 248.6 83.3Z" fill="#525FE1"/>
<path d="M332.6 88.8C329.8 84.5 314 46 314 43.5C314 42 314.9 40.4 316.5 39.4C320.9 36.5 323 39.1 330.1 56C333.6 64.2 336.7 71 337 71C337.3 71 340.3 64.3 343.6 56.2C350.7 39.4 353 36.5 357.4 39.4C358.9 40.3 360 42 360 43.3C360 45.6 342.8 87.4 340.9 89.7C339.1 91.8 334.2 91.3 332.6 88.8Z" fill="#525FE1"/>
<path d="M309.3 78.2C306.9 77.8 306.6 76.8 306.8 68C306.9 64.8 306.7 63.9 306 65C305.3 66.1 305 65.6 304.9 63C304.9 61.1 304.7 58.8 304.6 58C303.4 51.9 310.6 49.5 313.5 55C315.4 58.6 315.4 58.8 313.3 59.3C311.6 59.7 311.6 59.8 313.2 59.9C315.7 60 316.5 64.4 315.1 70.5C313.7 76.8 312.2 78.7 309.3 78.2ZM313.8 68.6C315 68.3 315 68.2 313.5 68.3C312.4 68.4 311.5 69.2 311.4 70C311.4 70.8 311.5 71 311.7 70.3C311.9 69.7 312.9 68.9 313.8 68.6Z" fill="#525FE1"/>
<path d="M422.6 106.4C420.3 104.2 420.6 102.1 424.5 93.7L427.9 86.1L419.4 65.3C410.6 43.9 410 41.1 414 39C418.9 36.4 420.7 38.9 429.5 61.3C431.6 66.6 433.6 71 434 71C434.3 71 437.7 64 441.5 55.4C448.7 39.4 450.2 37.4 454.5 39C459.5 40.8 458.9 42.9 445 74.5C437.7 91 431.1 105.3 430.2 106.3C428.3 108.4 424.7 108.5 422.6 106.4Z" fill="#525FE1"/>
<path d="M389.3 81.4L377.5 70.9L377 79.3C376.4 88.6 375.2 91 371.1 91C366 91 366 90.9 366 56.5C366 26.6 366.1 24.2 367.8 22.7C370.3 20.5 372.6 20.6 375 23C376.8 24.8 377 26.3 377 40.5C377 49 377.3 56 377.6 56C377.9 56 382.5 52.2 387.9 47.5C398.7 38.2 401.7 37.1 404.6 41.5C406.1 43.8 406.1 44.2 404.7 46.4C403.8 47.7 399.2 52.1 394.5 56.1L385.9 63.5L391.2 68.5C394.1 71.2 399.1 75.8 402.3 78.7C406.3 82.4 408 84.7 408 86.4C408 88.9 404.8 92 402.3 92C401.6 92 395.8 87.2 389.3 81.4Z" fill="#525FE1"/>
<path d="M466 102.4V96.4L481 80.4C489.2 71.7 495.9 63.8 495.9 63C495.9 62.2 489.2 54.5 481 46L466 30.5V24.1V17.7L480.8 33.1C506.9 60.3 506 59.2 506 63.6C506 67.3 505 68.5 486 88L466.1 108.5L466 102.4Z" fill="#525FE1"/>
</svg>
