<svg width="80" height="80" viewBox="0 0 80 80" fill="none" xmlns="http://www.w3.org/2000/svg">
<g clip-path="url(#clip0_4_121)">
<path d="M63.3333 16.6667V63.3333H16.6667V16.6667H63.3333ZM63.3333 10H16.6667C14.8986 10 13.2029 10.7024 11.9526 11.9526C10.7024 13.2029 10 14.8986 10 16.6667V63.3333C10 65.1014 10.7024 66.7971 11.9526 68.0474C13.2029 69.2976 14.8986 70 16.6667 70H63.3333C65.1014 70 66.7971 69.2976 68.0474 68.0474C69.2976 66.7971 70 65.1014 70 63.3333V16.6667C70 14.8986 69.2976 13.2029 68.0474 11.9526C66.7971 10.7024 65.1014 10 63.3333 10Z" fill="#F0DE36"/>
<path d="M41.5667 35.0667C41.6402 36.273 41.4418 37.4804 40.986 38.5997C40.5302 39.719 39.8287 40.7216 38.9334 41.5333C36.7703 43.155 34.0975 43.9473 31.4 43.7667H29.0334V53.1H23.3334V26.9H31.8334C34.4118 26.7231 36.9709 27.4543 39.0667 28.9667C39.9245 29.7227 40.5963 30.6664 41.0299 31.7244C41.4635 32.7824 41.6472 33.9261 41.5667 35.0667ZM29.0334 39.2333H30.8667C32.2195 39.3282 33.566 38.9769 34.7 38.2333C35.1253 37.8698 35.4609 37.4129 35.6807 36.8983C35.9004 36.3837 35.9983 35.8253 35.9667 35.2667C36.0103 34.7398 35.9373 34.2099 35.753 33.7144C35.5686 33.219 35.2774 32.7702 34.9 32.4C33.9368 31.6992 32.7538 31.368 31.5667 31.4667H29.0334V39.2333Z" fill="#F0DE36"/>
<path d="M54.6667 32.7C55.2864 32.6216 55.9136 32.6216 56.5333 32.7L56.1 37.8C55.5747 37.6843 55.0379 37.6284 54.5 37.6333C53.0236 37.5397 51.5677 38.017 50.4333 38.9667C49.9368 39.4553 49.5493 40.0437 49.2965 40.6929C49.0437 41.3421 48.9313 42.0375 48.9667 42.7333V52.9333H43.5V32.9333H47.6333L48.4333 36.2667H48.7C49.2984 35.1639 50.1709 34.234 51.2333 33.5667C52.2669 32.9447 53.4617 32.6431 54.6667 32.7Z" fill="#F0DE36"/>
</g>
<defs>
<clipPath id="clip0_4_121">
<rect width="80" height="80" fill="white"/>
</clipPath>
</defs>
</svg>
