<svg width="80" height="80" viewBox="0 0 80 80" fill="none" xmlns="http://www.w3.org/2000/svg">
<g clip-path="url(#clip0_4_95)">
<path d="M6.66663 40C6.66973 35.317 7.64592 30.6858 9.53329 26.4L25.4666 70C19.8316 67.27 15.0795 63.008 11.7545 57.7023C8.42958 52.3965 6.66629 46.2615 6.66663 40ZM62.5 38.3333C62.1419 42.0163 61.3014 45.6361 60 49.1L56.6666 60.2L44.6 24.4667L48.4 24.0667C48.7309 23.9965 49.0252 23.809 49.2285 23.5387C49.4319 23.2683 49.5304 22.9335 49.5061 22.5961C49.4817 22.2588 49.336 21.9416 49.0959 21.7034C48.8558 21.4651 48.5375 21.3218 48.2 21.3C48.2 21.3 42.8 21.7333 39.3 21.7333L30.5333 21.3C30.1937 21.3155 29.8713 21.454 29.6264 21.6897C29.3814 21.9254 29.2306 22.2422 29.202 22.5809C29.1734 22.9196 29.2691 23.2572 29.4711 23.5306C29.6732 23.804 29.9678 23.9945 30.3 24.0667L33.8333 24.4667L39.0333 38.6L31.7333 60.4667L19.5666 24.4667L23.3333 24.0667C23.6633 24.0153 23.9641 23.8476 24.1813 23.594C24.3985 23.3403 24.5179 23.0173 24.5179 22.6833C24.5179 22.3494 24.3985 22.0264 24.1813 21.7727C23.9641 21.519 23.6633 21.3514 23.3333 21.3C23.3333 21.3 17.9333 21.7333 14.4333 21.7333H12.1333C14.7795 17.6958 18.2711 14.2812 22.3667 11.7257C26.4622 9.17016 31.064 7.53471 35.8537 6.93243C40.6434 6.33015 45.5068 6.77541 50.1075 8.23741C54.7083 9.69942 58.9365 12.1433 62.5 15.4H62.0666C60.5429 15.4436 59.0985 16.0888 58.0491 17.1944C56.9997 18.3 56.4308 19.7761 56.4666 21.3C56.8368 24.1678 57.9901 26.8782 59.8 29.1333C61.5824 31.8726 62.5425 35.0653 62.5666 38.3333M40.6333 42.9L50.9 70.9667L51.1333 71.4333C44.5389 73.7696 37.3738 73.9563 30.6666 71.9667L40.6666 42.9M69.2666 24C73.4236 31.6358 74.4327 40.5935 72.0789 48.9628C69.725 57.3321 64.1944 64.4505 56.6666 68.8L66.8666 39.3667C68.4895 35.6052 69.3614 31.5627 69.4333 27.4667L69.2 24.1333" fill="#F0DE36"/>
</g>
<defs>
<clipPath id="clip0_4_95">
<rect width="80" height="80" fill="white"/>
</clipPath>
</defs>
</svg>
